<?xml version="1.0" standalone="no"?>
<!DOCTYPE svg PUBLIC "-//W3C//DTD SVG 20010904//EN"
 "http://www.w3.org/TR/2001/REC-SVG-20010904/DTD/svg10.dtd">
<svg version="1.0" xmlns="http://www.w3.org/2000/svg"
 width="512.000000pt" height="512.000000pt" viewBox="0 0 512.000000 512.000000"
 preserveAspectRatio="xMidYMid meet">

<g transform="translate(0.000000,512.000000) scale(0.100000,-0.100000)"
fill="#000000" stroke="none">
<path d="M2270 4835 c-888 -112 -1628 -704 -1894 -1515 -75 -231 -106 -423
-106 -672 0 -546 201 -1048 588 -1471 89 -97 107 -135 98 -207 -15 -110 -95
-290 -179 -398 -35 -46 -41 -62 -45 -110 -9 -152 112 -201 463 -189 250 9 424
55 663 175 l132 66 133 -22 c334 -56 630 -52 936 13 1052 222 1810 1142 1789
2167 -3 140 -5 160 -24 185 -73 98 -195 98 -268 0 -19 -26 -22 -47 -28 -230
-3 -114 -13 -240 -22 -290 -95 -511 -404 -963 -856 -1252 -184 -118 -449 -224
-675 -270 -267 -55 -524 -56 -820 -4 -190 33 -228 27 -412 -63 -168 -83 -273
-120 -407 -143 -89 -15 -166 -20 -166 -10 0 3 7 22 16 43 9 20 27 69 40 107
98 280 66 433 -135 652 -275 301 -431 625 -487 1013 -22 152 -14 438 15 585
49 238 172 523 308 714 81 112 246 287 352 373 295 238 654 389 1042 438 46 5
149 10 229 10 120 0 152 4 186 19 107 49 119 203 22 273 -31 22 -42 23 -208
25 -97 1 -222 -4 -280 -12z"/>
<path d="M3872 4833 c-18 -9 -43 -30 -55 -47 -21 -30 -22 -39 -25 -353 l-3
-322 -317 -3 c-299 -3 -319 -4 -352 -24 -101 -59 -104 -195 -6 -268 26 -20 44
-21 349 -26 l322 -5 5 -322 c5 -305 6 -323 26 -349 72 -98 204 -96 265 3 24
38 24 42 27 356 l3 317 311 0 c265 0 315 2 344 16 50 24 77 68 82 133 5 70
-22 115 -88 149 -43 21 -53 22 -347 22 l-302 0 -3 313 c-3 294 -4 314 -24 347
-43 74 -134 102 -212 63z"/>
<path d="M1620 2754 c-167 -72 -165 -318 2 -389 139 -57 298 47 298 195 0 149
-162 254 -300 194z"/>
<path d="M2460 2748 c-69 -37 -104 -94 -108 -176 -3 -56 0 -74 20 -112 37 -69
94 -104 176 -108 56 -3 74 0 112 20 69 37 104 94 108 176 3 56 0 74 -20 112
-37 69 -94 104 -176 108 -56 3 -74 0 -112 -20z"/>
<path d="M3325 2753 c-165 -87 -166 -300 -1 -385 59 -30 151 -22 208 18 138
96 118 305 -34 369 -48 19 -134 19 -173 -2z"/>
</g>
</svg>
