<?xml version="1.0" standalone="no"?>
<!DOCTYPE svg PUBLIC "-//W3C//DTD SVG 20010904//EN"
 "http://www.w3.org/TR/2001/REC-SVG-20010904/DTD/svg10.dtd">
<svg version="1.0" xmlns="http://www.w3.org/2000/svg"
 width="2080.000000pt" height="2048.000000pt" viewBox="0 0 2080.000000 2048.000000"
 preserveAspectRatio="xMidYMid meet">

<g transform="translate(0.000000,2048.000000) scale(0.100000,-0.100000)"
fill="#000000" stroke="none">
<path d="M11765 17504 c-320 -32 -517 -66 -725 -125 -138 -40 -199 -61 -405
-142 -341 -135 -736 -376 -1060 -649 -107 -90 -321 -307 -426 -433 -254 -303
-489 -711 -632 -1100 -79 -215 -122 -365 -173 -610 -8 -38 -28 -124 -45 -190
-41 -164 -130 -570 -184 -843 -25 -125 -56 -276 -69 -337 -14 -60 -41 -189
-61 -285 -42 -200 -95 -449 -165 -765 -27 -121 -67 -312 -90 -425 -23 -113
-52 -250 -65 -305 -23 -95 -78 -351 -146 -675 -17 -80 -37 -169 -45 -197 -15
-53 -16 -53 -72 -68 -176 -48 -477 -184 -681 -306 -161 -97 -363 -260 -537
-433 -174 -175 -279 -304 -429 -531 -244 -369 -390 -759 -500 -1335 -29 -150
-77 -390 -104 -520 -12 -52 -41 -201 -66 -330 -26 -129 -64 -318 -85 -420 -22
-102 -71 -349 -109 -550 -39 -201 -78 -399 -86 -440 -151 -752 -163 -852 -117
-937 33 -63 87 -112 161 -147 56 -26 77 -30 141 -30 86 1 137 18 625 211 387
153 534 229 742 383 104 77 286 251 382 364 230 275 438 655 549 1006 41 130
114 443 197 850 100 488 148 717 179 853 20 87 59 270 86 407 27 137 56 275
65 307 8 32 28 126 44 208 52 259 181 877 185 884 2 3 36 164 75 356 82 411
141 695 176 855 14 63 41 189 60 280 19 91 46 217 60 280 14 63 34 158 45 210
69 338 133 640 155 735 15 61 35 155 45 210 18 97 117 559 146 680 7 33 39
177 69 320 139 651 158 724 243 970 122 350 243 588 451 887 79 112 163 210
291 339 305 309 695 549 1155 713 139 49 400 115 556 141 98 15 370 35 494 35
146 0 434 -21 545 -41 117 -20 393 -91 506 -130 313 -107 670 -297 929 -493
87 -66 239 -201 350 -311 115 -114 318 -375 396 -508 19 -32 39 -66 44 -75 47
-78 130 -231 147 -269 11 -27 32 -73 45 -103 89 -195 169 -468 217 -735 31
-168 36 -203 45 -310 53 -590 -11 -1116 -208 -1733 -47 -145 -174 -421 -276
-597 -207 -359 -561 -754 -875 -979 -445 -318 -770 -482 -1180 -595 -85 -24
-193 -54 -240 -67 -47 -12 -209 -52 -360 -88 -151 -36 -392 -94 -535 -130
-383 -95 -1005 -248 -1205 -296 -96 -23 -252 -62 -347 -86 -95 -24 -174 -44
-176 -44 -3 0 12 80 73 370 23 107 66 317 97 465 59 286 75 343 122 418 59 92
114 117 396 181 187 42 1571 389 1755 440 359 99 676 287 961 569 205 204 340
388 464 635 237 475 293 1154 139 1687 -73 251 -226 541 -387 735 -41 48 -121
132 -203 211 -221 212 -558 381 -924 465 -198 46 -567 43 -772 -6 -148 -34
-244 -71 -403 -150 -140 -71 -240 -139 -368 -249 -298 -257 -486 -534 -601
-883 -56 -169 -53 -159 -137 -568 -183 -899 -184 -902 -284 -1375 -19 -93 -42
-194 -50 -225 -7 -30 -41 -188 -74 -350 -60 -295 -120 -584 -205 -990 -58
-277 -52 -247 -227 -1115 -28 -137 -73 -356 -100 -485 -28 -129 -82 -388 -120
-575 -38 -187 -78 -376 -88 -420 -11 -44 -41 -183 -66 -310 -26 -126 -71 -342
-100 -480 -29 -137 -60 -286 -69 -330 -8 -44 -38 -186 -66 -315 -28 -129 -66
-309 -85 -398 -159 -753 -395 -1286 -807 -1817 -104 -134 -367 -404 -498 -511
-279 -228 -570 -393 -866 -490 -198 -65 -228 -79 -283 -139 -63 -68 -85 -124
-85 -215 -1 -66 4 -85 32 -142 20 -40 47 -78 70 -96 112 -89 231 -112 364 -72
197 59 557 235 795 387 353 228 730 570 977 888 260 334 392 545 549 880 189
401 312 761 396 1155 23 107 50 233 61 280 25 109 69 318 115 540 19 96 47
229 61 295 14 66 37 176 50 245 24 122 70 337 119 550 13 58 29 132 35 165 17
87 70 284 86 325 46 111 178 161 857 329 791 195 1305 321 1512 371 421 101
748 189 995 267 573 180 1161 544 1626 1008 228 227 358 384 534 645 52 77 51
74 128 205 149 250 309 629 394 934 22 80 49 175 59 211 56 199 111 558 130
852 11 177 -1 578 -21 720 -94 642 -224 1058 -468 1498 -312 563 -759 1044
-1293 1393 -499 325 -1054 532 -1619 603 -128 16 -698 28 -805 18z m472 -2694
c197 -35 352 -101 522 -223 117 -83 171 -135 256 -248 151 -202 221 -370 277
-664 9 -46 13 -155 13 -320 0 -238 -2 -255 -28 -364 -88 -369 -204 -591 -417
-801 -135 -133 -270 -226 -440 -306 -41 -19 -83 -39 -92 -44 -9 -5 -72 -25
-139 -45 -67 -19 -179 -53 -248 -74 -69 -21 -153 -46 -186 -55 -65 -18 -562
-141 -855 -213 -36 -8 -105 -26 -155 -39 -99 -26 -360 -89 -414 -99 -28 -6
-33 -4 -28 7 8 21 23 94 208 978 27 129 67 325 89 435 39 192 78 378 140 665
16 74 41 196 55 270 56 289 106 426 228 620 69 110 114 161 222 256 174 152
340 233 552 269 122 20 312 18 440 -5z m-4938 -5252 c-34 -177 -100 -505 -180
-893 -44 -214 -109 -529 -144 -700 -35 -170 -80 -386 -100 -480 -20 -93 -54
-255 -75 -360 -114 -551 -147 -670 -249 -893 -68 -149 -102 -210 -172 -312
-169 -247 -376 -438 -603 -556 -169 -88 -351 -165 -354 -150 -2 8 4 41 12 73
9 33 31 141 50 239 19 98 51 258 70 354 20 96 74 369 121 605 47 237 97 484
110 550 13 66 56 282 95 480 121 613 162 754 301 1030 88 174 140 260 245 401
164 220 389 429 589 545 53 31 288 156 296 158 4 0 -2 -41 -12 -91z"/>
</g>
</svg>
