<?xml version="1.0" standalone="no"?>
<!DOCTYPE svg PUBLIC "-//W3C//DTD SVG 20010904//EN"
 "http://www.w3.org/TR/2001/REC-SVG-20010904/DTD/svg10.dtd">
<svg version="1.0" xmlns="http://www.w3.org/2000/svg"
 width="512.000000pt" height="512.000000pt" viewBox="0 0 512.000000 512.000000"
 preserveAspectRatio="xMidYMid meet">

<g transform="translate(0.000000,512.000000) scale(0.100000,-0.100000)"
fill="#000000" stroke="none">
<path d="M4430 4591 c-146 -76 -1122 -585 -2170 -1130 -1048 -546 -1913 -1001
-1922 -1013 -31 -36 -16 -97 29 -117 14 -6 390 -142 836 -302 447 -161 815
-294 819 -298 4 -3 -7 -293 -24 -643 -29 -598 -30 -638 -14 -662 19 -30 59
-43 92 -30 14 5 192 217 415 494 215 267 399 493 409 504 18 18 34 13 662
-213 354 -127 653 -231 664 -231 38 0 72 37 79 83 386 2806 495 3606 495 3632
0 26 -47 65 -77 65 -16 0 -141 -60 -293 -139z m-50 -1832 c-122 -887 -223
-1615 -224 -1617 -2 -1 -318 110 -702 248 -385 139 -809 291 -944 339 -135 49
-245 93 -245 98 0 16 2330 2569 2333 2557 2 -6 -96 -738 -218 -1625z m-56
1579 c-10 -12 -517 -570 -1127 -1240 l-1107 -1217 -123 44 c-173 61 -1142 409
-1264 453 l-102 37 747 389 c411 214 952 496 1202 627 986 514 1785 929 1789
929 2 0 -4 -10 -15 -22z m-1857 -2764 c148 -52 271 -98 275 -102 4 -4 -129
-175 -294 -380 -165 -205 -302 -371 -304 -369 -5 4 35 870 42 915 3 17 7 32 9
32 3 0 125 -43 272 -96z"/>
</g>
</svg>
